inDegrees=no
num_controls=7
num_derivatives=13
num_iterations=52
num_multipliers=7
num_parameters=0
num_slacks=7
num_states=26
objective=0.433952
objective_accelerations=0.048905
objective_balance=0.007017
objective_effort=0.031862
objective_height=0.344921
objective_ligament=0.001248
solver_duration=665.720902
status=Solve_Succeeded
success=true
DataType=double
version=3
OpenSimVersion=4.5
endheader
time	/jointset/ground_pelvis/pelvis_tilt/value	/jointset/ground_pelvis/pelvis_tx/value	/jointset/ground_pelvis/pelvis_ty/value	/jointset/hip_l/hip_flexion_l/value	/jointset/hip_l/hip_adduction_l/value	/jointset/hip_l/hip_rotation_l/value	/jointset/back/lumbar_extension/value	/jointset/patellofemoral_l/patellar_flexion_l/value	/jointset/knee_l/knee_flexion_l/value	/jointset/knee_l/knee_adduction_l/value	/jointset/knee_l/knee_rotation_l/value	/jointset/ankle_l/ankle_angle_l/value	/jointset/subtalar_l/subtalar_angle_l/value	/jointset/ground_pelvis/pelvis_tilt/speed	/jointset/ground_pelvis/pelvis_tx/speed	/jointset/ground_pelvis/pelvis_ty/speed	/jointset/hip_l/hip_flexion_l/speed	/jointset/hip_l/hip_adduction_l/speed	/jointset/hip_l/hip_rotation_l/speed	/jointset/back/lumbar_extension/speed	/jointset/patellofemoral_l/patellar_flexion_l/speed	/jointset/knee_l/knee_flexion_l/speed	/jointset/knee_l/knee_adduction_l/speed	/jointset/knee_l/knee_rotation_l/speed	/jointset/ankle_l/ankle_angle_l/speed	/jointset/subtalar_l/subtalar_angle_l/speed	/forceset/tau_hip_flexion_l	/forceset/tau_hip_adduction_l	/forceset/tau_hip_rotation_l	/forceset/tau_knee_flexion_l	/forceset/tau_ankle_angle_l	/forceset/tau_subtalar_angle_l	/forceset/tau_lumbar_extension	lambda_cid13_p0	lambda_cid13_p1	lambda_cid13_p2	lambda_cid13_p3	lambda_cid13_p4	lambda_cid13_p5	lambda_cid14_p0	/jointset/ground_pelvis/pelvis_tilt/accel	/jointset/ground_pelvis/pelvis_tx/accel	/jointset/ground_pelvis/pelvis_ty/accel	/jointset/hip_l/hip_flexion_l/accel	/jointset/hip_l/hip_adduction_l/accel	/jointset/hip_l/hip_rotation_l/accel	/jointset/back/lumbar_extension/accel	/jointset/patellofemoral_l/patellar_flexion_l/accel	/jointset/knee_l/knee_flexion_l/accel	/jointset/knee_l/knee_adduction_l/accel	/jointset/knee_l/knee_rotation_l/accel	/jointset/ankle_l/ankle_angle_l/accel	/jointset/subtalar_l/subtalar_angle_l/accel	gamma_cid13_p0	gamma_cid13_p1	gamma_cid13_p2	gamma_cid13_p3	gamma_cid13_p4	gamma_cid13_p5	gamma_cid14_p0
0.5	-0.3477710712896876	-0.0330702596211235	0.7727154965622296	1.154647802099503	-0.306330005623769	-0.00845159673696399	-0.3154609038395526	0.7690166683796552	0.7690166683800678	-0.1733619759072268	0.1693093542327973	0.1395853412183529	-0.02546734299156073	-0.4769321611829559	-0.1797747369893733	-0.485397025093131	2.119442653724335	-0.003665602683101346	0.6782075204505421	-0.6375241360428248	2.019129423640026	2.019129423639998	-0.005365400250570061	0.03470226013978168	0.4938474537173236	0.07397494684397646	-0.189571405338717	0.06588091461329239	-0.02549508470271847	-0.2445032033209708	0.1119205267097267	-0.002108357770396978	0.1855323265054881	-3.227577113391378	0.05475791587277822	1.217717162696307	-1.436070108533793	-601.8788086139243	-19.86526855952978	-23.45396446591999	0.4862676490224135	0.5163951395466637	-0.4456660324369199	-1.147561365630613	0.6680725868114744	-0.3014542197097674	1.454794592688628	-1.132717228099613	-1.132717228099619	0.04706202559373916	-0.08292803676560809	-0.459744232229607	0.6623241389983643	-4.381169182479168e-07	-7.094701915382897e-07	2.45274927414571e-06	2.457776523783615e-07	-5.241299867964121e-07	-3.80577964325027e-07	-4.17696473248573e-07
0.51	-0.352514981194002	-0.03484190948053216	0.7678403173204752	1.175780890914269	-0.306334816474747	-0.001683788143326852	-0.3217628987154029	0.7891477089352478	0.7891477089352329	-0.1734168735642471	0.1696520828626699	0.1444994593723959	-0.02469629135508518	-0.4717865802115424	-0.1745343036372481	-0.4895329394741021	2.106871692109579	0.002681216045645019	0.6752712755532145	-0.6227774429029006	2.006783701834639	2.006783701834629	-0.005616318606481987	0.033835631768277	0.4888927691878479	0.0802139629657499	-0.196312562363429	0.06622553517665586	-0.02557798042456164	-0.2468340983292787	0.1101691081058107	-0.001439133482811268	0.1911143650726335	-4.004091141472361	0.0588245682796157	1.035738778846877	-1.185456620121315	-606.2377337247459	-19.72648495507254	-22.24281773487127	0.5381514503934617	0.5310526051718379	-0.3817695818507774	-1.357425750450962	0.6143828992149386	-0.3025082166667005	1.499216108310504	-1.329668516394584	-1.329668516391993	-0.06151192074080254	-0.09016685288997309	-0.5258374258513163	0.6013162853283305	-3.937045573223702e-07	-6.432960334604926e-07	2.254477477293563e-06	2.235657132510318e-07	-4.719280854303074e-07	-3.020356798335172e-07	-3.837000422865997e-07
0.52	-0.3572055456627647	-0.03656051797199436	0.7629269358467268	1.196779157674671	-0.3062768798617754	0.005052098282951857	-0.3279145047731221	0.8091464585008635	0.8091464585004179	-0.173474349035741	0.1699858178857097	0.1493615293086351	-0.02386352437007961	-0.4662630740724247	-0.1691664634000797	-0.4930374714919833	2.092478242852707	0.008883890106740644	0.6718230869789908	-0.6074463724163273	1.9926712256438	1.992671225643807	-0.005880963144678997	0.03290353877489045	0.4834378101565819	0.08631801654998326	-0.20305371938817	0.06657015574001414	-0.02566087614648153	-0.2491649933375768	0.1084176895018977	-0.000769909195230696	0.1966964036397489	-4.7856435881204	0.05958300663479364	0.8590757819952578	-0.9502599879105524	-610.6819875381138	-19.67418708518636	-21.02801006955056	0.5618526825632039	0.5418765165552821	-0.3193895598189069	-1.512058894054007	0.6392436532813187	-0.4038429550889779	1.57167006201843	-1.486068105189984	-1.486068105189976	0.0443167891367214	-0.09602096114198201	-0.5597991325876943	0.6353316314903541	-3.652799993895779e-07	-5.586581207902091e-07	2.145899258851375e-06	2.157797270888405e-07	-4.353299247680472e-07	-2.286274253412787e-07	-3.610009954405554e-07
0.53	-0.3618390899572957	-0.03822488010811934	0.757981691146268	1.217624681653378	-0.3061575190184138	0.01175096287715907	-0.333909958971413	0.8289955376585719	0.8289955376579459	-0.1735342050718852	0.1703098830775787	0.1541667161794711	-0.02297024917376531	-0.4603869882621331	-0.163691145384714	-0.495901856957492	2.076335387116267	0.01496142223371484	0.6678698286995073	-0.5915613033849071	1.976863701659232	1.976863701659237	-0.006090602124109314	0.03190193990468207	0.477523884724861	0.09231074400907845	-0.2096819303697441	0.06671155341553665	-0.02569715472966021	-0.2515862195150099	0.1067457151339415	-0.0002318636691854743	0.2021600529062643	-5.548656355919926	0.1167661475300041	0.6703317055596406	-0.6797695321632112	-615.1433841089502	-19.5633258899793	-19.81151935419636	0.6092740861598315	0.5526245480681984	-0.253604514911301	-1.709115928279772	0.5877218451793819	-0.4033813438938555	1.609399902263515	-1.670160365250736	-1.67016036525104	-0.05366561990917939	-0.1037819310483866	-0.6185324909173016	0.5771382788147473	-3.375025811141703e-07	-4.771158575793713e-07	2.0375605540319e-06	2.084681261219722e-07	-4.009572960318647e-07	-1.596332004686681e-07	-3.384058869689395e-07
0.54	-0.366412115882545	-0.03983403604328252	0.7530110742961559	1.238300033671746	-0.3059782400832269	0.01840783207266382	-0.3397440675636794	0.8486781284124049	0.8486781284115978	-0.1735961697735112	0.1706236217645252	0.1589104951474994	-0.02201786770772092	-0.4541594002159329	-0.1581252232077182	-0.4981119014227475	2.058443850786195	0.02086750847164877	0.6634240072393901	-0.5751772512110973	1.959373544868248	1.959373544868251	-0.006302696240591558	0.03083823779094907	0.4711562295950203	0.09813927049599917	-0.2163101413513549	0.06685295109104249	-0.02573343331281333	-0.2540074456924485	0.1050737407659838	0.0003061818568404003	0.2076237021727454	-6.317957953317469	0.1712141918918194	0.4864069904621751	-0.4179811858953006	-619.7049555810588	-19.53315691212737	-18.59577847758111	0.632153129744888	0.5599973488812998	-0.188521359768285	-1.861795012780661	0.6049544754732654	-0.5023555912157429	1.67146669049631	-1.822594666473072	-1.822594666473077	0.04382576172633419	-0.1084416098469002	-0.6505450722116252	0.6024914370554642	-3.104411471405501e-07	-3.989985682385586e-07	1.929486843007765e-06	2.016813768605678e-07	-3.690469579372999e-07	-9.552258283479464e-08	-3.159257741456273e-07
0.55	-0.3709212276733335	-0.04138713488994739	0.7480216441052704	1.258788018294327	-0.3057406341177564	0.02501768638077199	-0.3454118949414517	0.8681776915812515	0.8681776915810461	-0.173659869608781	0.1709264546435819	0.1635885116464332	-0.02100787228805193	-0.4476090136222052	-0.1524842160825868	-0.4996620422164567	2.038873956112623	0.02662269388540309	0.6584595937067567	-0.5583172320202949	1.940275652485293	1.940275652485293	-0.006428658632917967	0.0297287715477844	0.4643825246283483	0.1038294298911556	-0.2227710310095856	0.06679678386047662	-0.02572678085004872	-0.2565288903855501	0.1035722921750721	0.0007100345066649067	0.2129306850096866	-7.034827953141412	0.2773762093493865	0.2912500061033228	-0.1658680090228457	-624.2204539618771	-19.45008074530693	-17.38348391809144	0.674547081300632	0.5677414966207346	-0.1215165867646136	-2.046489133745201	0.5559103043262651	-0.5068417688567275	1.703918381848645	-1.992841253811161	-1.992841253811632	-0.03951560187618574	-0.1125101275160808	-0.7004525936435434	0.5475576791553635	-2.845521064622412e-07	-3.201971478189183e-07	1.823778010235411e-06	1.962603025367608e-07	-3.397503295480157e-07	-3.445555014043641e-08	-2.936141082970195e-07
0.5600000000000001	-0.3753632224667626	-0.04288350584490264	0.7430200612769302	1.279071923482347	-0.3054464543521473	0.03157522504663374	-0.3509089923576224	0.88747838488035	0.8874783848807455	-0.1737245707404113	0.1712181306610101	0.1681968572187507	-0.01994191937674944	-0.4407360007439194	-0.1467796448657968	-0.5005424289138306	2.017627963875067	0.03218226849915136	0.6529608787913395	-0.5410312588904331	1.91959957091816	1.919599570918157	-0.006502955511807986	0.02860686546602677	0.4572220442717344	0.1093307688226967	-0.229231920667855	0.06674061662989046	-0.0257201283872492	-0.2590503350786589	0.1020708435841576	0.001113887156465432	0.218237667846592	-7.758481389064491	0.3812408039907554	0.1004415030237325	0.08042357475570235	-628.8409532881701	-19.4408956203118	-16.17822241257354	0.6966783866565218	0.5727101672130434	-0.05457054050125018	-2.197014525577059	0.5658323154720548	-0.6092158677724527	1.756657478308166	-2.138232503308626	-2.138232503308658	0.05415886441361101	-0.1109295775654856	-0.7279001502000123	0.5647273443323846	-2.600699377383061e-07	-2.40574770104685e-07	1.720907031365193e-06	1.924780381380706e-07	-3.135901528050684e-07	2.295918062650372e-08	-2.715045788180571e-07
